<?xml version="1.0" encoding="UTF-8"?>
<svg width="487px" height="446px" viewBox="0 0 487 446" version="1.1" xmlns="http://www.w3.org/2000/svg" xmlns:xlink="http://www.w3.org/1999/xlink">
    <!-- Generator: Sketch 52.1 (67048) - http://www.bohemiancoding.com/sketch -->
    <title>warning (1)</title>
    <desc>Created with Sketch.</desc>
    <g id="Page-1" stroke="none" stroke-width="1" fill="none" fill-rule="evenodd">
        <g id="warning-(1)" fill="#000000">
            <path d="M243.225,313.382 C229.625,313.382 218.225,324.782 218.225,338.382 C218.225,351.982 229.625,363.382 243.225,363.382 C256.325,363.382 268.225,351.982 267.625,338.982 C268.225,324.682 256.925,313.382 243.225,313.382 Z" id="Path"></path>
            <path d="M474.625,401.982 C490.325,374.882 490.425,342.582 474.825,315.582 L318.225,44.382 C302.725,17.082 274.725,0.882 243.325,0.882 C211.925,0.882 183.925,17.182 168.425,44.282 L11.625,315.782 C-3.975,343.082 -3.875,375.582 11.925,402.682 C27.525,429.482 55.425,445.582 86.625,445.582 L399.425,445.582 C430.725,445.582 458.825,429.282 474.625,401.982 Z M440.625,382.382 C431.925,397.382 416.525,406.282 399.325,406.282 L86.525,406.282 C69.525,406.282 54.225,397.582 45.725,382.882 C37.125,367.982 37.025,350.182 45.625,335.182 L202.425,63.782 C210.925,48.882 226.125,40.082 243.325,40.082 C260.425,40.082 275.725,48.982 284.225,63.882 L440.925,335.282 C449.325,349.882 449.225,367.482 440.625,382.382 Z" id="Shape" fill-rule="nonzero"></path>
            <path d="M237.025,137.882 C225.125,141.282 217.725,152.082 217.725,165.182 C218.325,173.082 218.825,181.082 219.425,188.982 C221.125,219.082 222.825,248.582 224.525,278.682 C225.125,288.882 233.025,296.282 243.225,296.282 C253.425,296.282 261.425,288.382 261.925,278.082 C261.925,271.882 261.925,266.182 262.525,259.882 C263.625,240.582 264.825,221.282 265.925,201.982 C266.525,189.482 267.625,176.982 268.225,164.482 C268.225,159.982 267.625,155.982 265.925,151.982 C260.825,140.782 248.925,135.082 237.025,137.882 Z" id="Path"></path>
        </g>
    </g>
</svg>